<?xml version="1.0" encoding="UTF-8" standalone="no"?>
<!-- Created with Inkscape (http://www.inkscape.org/) -->

<svg
   width="100cm"
   height="100cm"
   viewBox="0 0 3779.5277 3779.5277"
   version="1.1"
   id="svg1"
   inkscape:version="1.3.2 (091e20e, 2023-11-25, custom)"
   sodipodi:docname="PrintDesign - Dark - vectorized.svg"
   xml:space="preserve"
   xmlns:inkscape="http://www.inkscape.org/namespaces/inkscape"
   xmlns:sodipodi="http://sodipodi.sourceforge.net/DTD/sodipodi-0.dtd"
   xmlns:xlink="http://www.w3.org/1999/xlink"
   xmlns="http://www.w3.org/2000/svg"
   xmlns:svg="http://www.w3.org/2000/svg"><sodipodi:namedview
     id="namedview1"
     pagecolor="#ffffff"
     bordercolor="#000000"
     borderopacity="0.25"
     inkscape:showpageshadow="2"
     inkscape:pageopacity="0.0"
     inkscape:pagecheckerboard="0"
     inkscape:deskcolor="#d1d1d1"
     inkscape:document-units="mm"
     inkscape:zoom="0.125"
     inkscape:cx="1256"
     inkscape:cy="1716"
     inkscape:window-width="1920"
     inkscape:window-height="1017"
     inkscape:window-x="1912"
     inkscape:window-y="-8"
     inkscape:window-maximized="1"
     inkscape:current-layer="Group_8"
     showguides="true"
     inkscape:lockguides="false"
     showgrid="false"><inkscape:grid
       id="grid1"
       units="mm"
       originx="0"
       originy="0"
       spacingx="3.7795277"
       spacingy="3.7795277"
       empcolor="#0099e5"
       empopacity="0.30196078"
       color="#0099e5"
       opacity="0.14901961"
       empspacing="5"
       dotted="false"
       gridanglex="30"
       gridanglez="30"
       visible="false" /></sodipodi:namedview><defs
     id="defs1"><rect
       x="377.95276"
       y="1436.2205"
       width="2996.3484"
       height="871.75299"
       id="rect13" /><rect
       x="377.95276"
       y="1662.9921"
       width="3014.8616"
       height="990.07251"
       id="rect12" /><linearGradient
       id="linearGradient1"
       inkscape:collect="always"><stop
         style="stop-color:#222222;stop-opacity:1;"
         offset="0"
         id="stop7" /><stop
         style="stop-color:#0a3e3c;stop-opacity:1;"
         offset="1"
         id="stop8" /></linearGradient><linearGradient
       id="linear-gradient"
       x1="1374.4964"
       y1="99.597823"
       x2="1374.4964"
       y2="59.716252"
       gradientUnits="userSpaceOnUse"
       gradientTransform="matrix(1.4405101,0,0,3.5324715,-1094.6367,-95.273781)"><stop
         offset="0.393"
         stop-color="#51bcb1"
         id="stop1" /><stop
         offset="0.45899999"
         stop-color="#59bfb4"
         id="stop2"
         style="stop-color:#ffffff;stop-opacity:1;" /><stop
         offset="0.563"
         stop-color="#6fc7be"
         id="stop3" /><stop
         offset="0.69"
         stop-color="#93d5ce"
         id="stop4" /><stop
         offset="0.836"
         stop-color="#c5e8e5"
         id="stop5" /><stop
         offset="0.983"
         stop-color="#fff"
         id="stop6" /></linearGradient><linearGradient
       inkscape:collect="always"
       xlink:href="#linearGradient1"
       id="linearGradient8"
       x1="1146.3506"
       y1="61.864578"
       x2="1146.3506"
       y2="817.77014"
       gradientUnits="userSpaceOnUse" /></defs><g
     inkscape:label="Vrstva 1"
     inkscape:groupmode="layer"
     id="layer1"><g
       id="Group_8"
       data-name="Group 8"
       transform="matrix(5,0,0,5,-3841.9892,-309.32289)"><rect
         style="fill:url(#linearGradient8);stroke-width:0.186"
         id="rect1"
         width="755.90558"
         height="755.90558"
         x="768.39783"
         y="61.864578"
         transform="translate(-2.792425e-6)" /><path
         id="path2"
         style="fill:none;fill-opacity:1;stroke:#4fffd4;stroke-width:5.29134;stroke-dasharray:none;stroke-opacity:0.09623431"
         transform="translate(-2.792425e-6)"
         d="m 1469.994,367.64701 a 18.950462,18.950462 0 0 0 -18.9504,18.95039 18.950462,18.950462 0 0 0 18.9504,18.95039 18.950462,18.950462 0 0 0 18.9503,-18.95039 18.950462,18.950462 0 0 0 -18.9503,-18.95039 z m -14.3043,31.38008 -76.7383,59.64883 z m -91.418,52.6832 a 18.950462,18.950462 0 0 0 -18.9504,18.95039 18.950462,18.950462 0 0 0 18.9504,18.9504 18.950462,18.950462 0 0 0 18.9508,-18.9504 18.950462,18.950462 0 0 0 -18.9508,-18.95039 z m -18.0274,24.79219 -392.9109,109.29297 z M 818.99784,337.9142 a 18.950462,18.950462 0 0 0 -18.95039,18.95039 18.950462,18.950462 0 0 0 18.95039,18.95039 18.950462,18.950462 0 0 0 18.95039,-18.95039 18.950462,18.950462 0 0 0 -18.95039,-18.95039 z m 8.61602,35.8289 99.39414,198.85392 z m 107.21016,197.1672 a 18.950462,18.950462 0 0 0 -18.95079,18.95039 18.950462,18.950462 0 0 0 18.95079,18.95039 18.950462,18.950462 0 0 0 18.95039,-18.95039 18.950462,18.950462 0 0 0 -18.95039,-18.95039 z" /><g
         id="Group_4"
         data-name="Group 4"
         transform="matrix(1.8785256,0,0,1.8278211,-730.29507,-54.980918)"
         style="fill:#ffffff;fill-opacity:1"><path
           id="Path_3"
           data-name="Path 3"
           d="m 923.426,93.9 c -2.538,0 -3.529,0.938 -3.529,3.529 v 8.216 h 15.549 v 4.466 H 919.9 v 17.2 h -5.515 V 96.267 c 0,-4.521 2.977,-7.114 7.664,-7.114 5.295,0 10.918,0 15.771,0.5 l -0.275,4.246 z"
           fill="#272425"
           style="fill:#ffffff;fill-opacity:1" /><path
           id="Path_4"
           data-name="Path 4"
           d="m 966.16,127.311 h -4.244 l -0.388,-3.695 c -3.915,2.923 -7.608,4.412 -11.468,4.412 -4.8,0 -7.335,-2.536 -7.335,-7.444 V 100.4 h 5.35 v 18.64 c -0.056,3.309 0.992,4.412 3.859,4.412 2.647,0 5.184,-1.269 8.933,-3.585 V 100.4 h 5.293 z"
           fill="#272425"
           style="fill:#ffffff;fill-opacity:1" /><path
           id="Path_5"
           data-name="Path 5"
           d="m 989.928,127.091 a 29.837,29.837 0 0 1 -6.342,0.717 c -4.577,0 -7,-2.7 -7,-7.555 v -15.715 h -4.909 v -3.86 l 4.909,-0.221 v -7.939 h 5.292 v 7.882 h 8.322 v 4.135 h -8.327 v 15 c 0,2.535 0.938,3.418 3.529,3.418 h 3.915 z"
           fill="#272425"
           style="fill:#ffffff;fill-opacity:1" /><path
           id="Path_6"
           data-name="Path 6"
           d="m 1019.1,127.311 h -4.245 l -0.386,-3.695 c -3.915,2.923 -7.609,4.412 -11.469,4.412 -4.8,0 -7.334,-2.536 -7.334,-7.444 V 100.4 h 5.348 v 18.64 c -0.055,3.309 0.993,4.412 3.861,4.412 2.646,0 5.184,-1.269 8.932,-3.585 V 100.4 h 5.293 z"
           fill="#272425"
           style="fill:#ffffff;fill-opacity:1" /><path
           id="Path_7"
           data-name="Path 7"
           d="m 1044.022,104.7 h -1.654 c -2.868,0 -5.57,1.158 -9.651,3.088 v 19.519 h -5.348 V 100.4 h 4.136 l 0.551,4.08 c 3.8,-3.033 7.719,-4.8 11.3,-4.8 h 1.269 z"
           fill="#272425"
           style="fill:#ffffff;fill-opacity:1" /><path
           id="Path_8"
           data-name="Path 8"
           d="m 1053.451,116.449 c 0.551,5.845 2.867,7.058 8.05,7.058 a 93.2,93.2 0 0 0 9.429,-0.663 l 0.5,3.529 c -2.646,1.158 -7.444,1.6 -10.642,1.6 -9.374,0 -12.959,-3.805 -12.959,-14.172 0,-10.641 3.749,-14.116 12.462,-14.116 8.382,0 11.8,3.143 11.8,9.043 0,4.853 -2.039,7.721 -6.561,7.721 z m 10.643,-4.136 c 2.26,0 2.646,-1.93 2.646,-3.585 -0.055,-3.252 -1.6,-4.521 -6.175,-4.521 -5.239,0 -7,1.71 -7.169,8.106 z"
           fill="#272425"
           style="fill:#ffffff;fill-opacity:1" /></g><g
         id="Group_6"
         data-name="Group 6"
         transform="matrix(2,0,0,2,-514.52707,-134.08018)"
         style="fill:#ffffff;fill-opacity:1"><g
           id="Group_5"
           data-name="Group 5"
           style="fill:#ffffff;fill-opacity:1"><path
             id="Path_9"
             data-name="Path 9"
             d="m 929.229,155.868 h -1.346 l -0.259,-2.234 a 8.345,8.345 0 0 1 -5.984,2.578 c -4.527,0 -6.331,-3.15 -6.331,-10.253 0,-7.733 2.063,-10.2 7.934,-10.2 a 23.105,23.105 0 0 1 5.556,0.545 l -0.229,1.4 a 45.89,45.89 0 0 0 -5.212,-0.286 c -4.527,0 -6.073,1.661 -6.073,8.621 0,6.157 1.289,8.534 4.842,8.534 a 8.27,8.27 0 0 0 5.269,-2.262 v -7.871 h 1.833 z"
             fill="#272425"
             style="fill:#ffffff;fill-opacity:1" /><path
             id="Path_10"
             data-name="Path 10"
             d="m 941.823,143.353 h -0.686 c -1.718,0 -3.265,0.773 -5.586,2.147 v 10.368 h -1.832 v -13.861 h 1.4 l 0.2,2.291 c 2.119,-1.662 4.182,-2.663 6.129,-2.663 h 0.6 z"
             fill="#272425"
             style="fill:#ffffff;fill-opacity:1" /><path
             id="Path_11"
             data-name="Path 11"
             d="m 956.57,148.938 c 0,5.327 -1.69,7.274 -6.358,7.274 -4.668,0 -6.387,-1.947 -6.387,-7.274 0,-5.327 1.718,-7.3 6.387,-7.3 4.669,0 6.358,1.972 6.358,7.3 z m -10.826,0 c 0,4.381 1.118,5.727 4.468,5.727 3.35,0 4.468,-1.346 4.468,-5.727 0,-4.381 -1.117,-5.729 -4.468,-5.729 -3.351,0 -4.468,1.346 -4.468,5.729 z"
             fill="#272425"
             style="fill:#ffffff;fill-opacity:1" /><path
             id="Path_12"
             data-name="Path 12"
             d="m 972.088,155.868 h -1.432 l -0.144,-2.176 a 9.926,9.926 0 0 1 -6.158,2.52 c -2.463,0 -3.751,-1.288 -3.751,-3.78 v -10.425 h 1.8 v 9.938 c 0,1.919 0.744,2.692 2.549,2.692 1.66,0 3.121,-0.8 5.326,-2.291 v -10.339 h 1.806 z"
             fill="#272425"
             style="fill:#ffffff;fill-opacity:1" /><path
             id="Path_13"
             data-name="Path 13"
             d="m 978.583,144.3 a 8.381,8.381 0 0 1 5.727,-2.663 c 3.494,0 4.869,2.376 4.869,7.359 0,5.3 -1.575,7.218 -5.154,7.218 a 10.861,10.861 0 0 1 -5.357,-1.46 21.812,21.812 0 0 1 0.057,2.749 v 4.209 h -1.8 v -19.7 h 1.49 z m 0.142,9.28 a 15.358,15.358 0 0 0 4.9,1.03 c 2.663,0 3.693,-1.289 3.693,-5.641 0,-4.24 -1,-5.729 -3.522,-5.729 -1.6,0 -3.007,0.773 -5.07,2.377 z"
             fill="#272425"
             style="fill:#ffffff;fill-opacity:1" /></g></g><path
         id="Path_14"
         data-name="Path 14"
         d="m 1135.5085,226.55591 -8.7919,-7.388 1.8027,-1.642 7.7798,6.052 7.8592,-6.066 1.695,1.676 -8.7576,7.368 z m -21.472,11.376 v 21.224 h -2.4389 l -0.2479,-4.518 a 22.494459,22.136 0 0 1 -12.926,4.862 c -5.0058,0 -7.9954,-2.856 -7.9954,-7.64 v -3.55 a 6.7617516,6.654 0 0 1 7.4142,-7.182 h 13.3669 v -3.188 c 0,-3.854 -1.8068,-5.648 -5.6907,-5.648 a 108.25103,106.526 0 0 0 -13.0072,0.91 l -0.685,0.086 -0.4064,-2.418 2.3433,-0.332 a 74.745097,73.554 0 0 1 11.8143,-0.98 c 5.5321,-0.002 8.4588,2.902 8.4588,8.384 z m -20.7304,13.92 c 0,3.212 1.6727,4.8 5.1115,4.848 a 20.844161,20.512 0 0 0 12.7736,-5.266 v -7.74 l -13.3549,0.218 c -3.0486,0.052 -4.5302,1.486 -4.5302,4.39 z m -74.2349,-8.092 -9.4324,-1.146 c -2.4815,-0.288 -4.0201,-1.238 -4.0201,-5.082 a 5.9284729,5.834 0 0 1 1.128,-4.222 c 1.1524,-1.11 3.4328,-1.15 7.0444,-1.082 3.2376,0.052 7.0076,0.212 10.6171,0.454 l 0.6504,0.044 0.4065,-2.4 -0.75,-0.088 c -3.2314,-0.378 -7.2027,-0.63 -10.9017,-0.694 -4.0201,-0.068 -7.2313,0.03 -9.1458,1.88 a 8.2718151,8.14 0 0 0 -1.8922,6.102 c 0,4.8 2.1259,7.27 6.6886,7.8 l 9.4263,1.144 a 4.3513406,4.282 0 0 1 4.3188,4.968 c 0,4.82 -1.884,5.536 -8.8388,5.65 a 80.17157,78.894 0 0 1 -9.9344,-0.4 l -0.6666,-0.062 -0.4066,2.4 0.7338,0.098 a 70.607157,69.482 0 0 0 10.2291,0.638 c 6.8593,0 11.7187,-0.6 11.7187,-8.328 a 7.1296136,7.016 0 0 0 -6.9629,-7.664 z m 52.7831,7.874 -1.9877,4.614 c -0.2743,-0.638 -0.5426,-1.282 -0.813,-1.924 -0.3678,-0.884 -0.7357,-1.768 -1.1157,-2.628 l -9.0889,-21.458 h -3.075 l 11.9302,28.106 a 1.5425818,1.518 0 0 0 1.3759,0.8 h 1.571 a 1.5872942,1.562 0 0 0 1.4227,-0.894 l 11.8833,-28.016 h -3.075 z m 38.9568,-33 -2.1116,-1.96 -9.7088,9.3 1.8597,1.696 z m 63.0038,10.916 a 21.923358,21.574 0 0 0 -12.9504,5.032 l -0.1524,-4.344 h -2.4592 v 28.918 h 2.8454 v -21.6 c 4.9508,-3.422 8.4344,-5.272 12.4341,-5.272 3.9306,0 5.6906,1.742 5.6906,5.648 v 21.224 h 2.8455 v -21.384 c 0,-5.296 -2.9287,-8.216 -8.2373,-8.216 z m -33.1279,14.2 -9.4382,-1.146 c -2.4815,-0.288 -4.0201,-1.238 -4.0201,-5.082 a 5.9183109,5.824 0 0 1 1.128,-4.222 c 1.1524,-1.11 3.4266,-1.15 7.044,-1.082 3.2376,0.052 7.0077,0.212 10.6173,0.454 l 0.6503,0.044 0.4064,-2.4 -0.7499,-0.088 c -3.2315,-0.378 -7.2028,-0.63 -10.9017,-0.694 -4.0259,-0.068 -7.231,0.03 -9.1455,1.88 a 8.2718151,8.14 0 0 0 -1.8922,6.102 c 0,4.8 2.1239,7.27 6.6886,7.8 l 9.426,1.144 a 4.3513406,4.282 0 0 1 4.3189,4.968 c 0,4.82 -1.8841,5.536 -8.8389,5.65 a 80.157343,78.88 0 0 1 -9.9341,-0.4 l -0.6667,-0.062 -0.4065,2.4 0.7337,0.098 a 70.60919,69.484 0 0 0 10.2289,0.638 c 6.8613,0 11.7166,-0.6 11.7166,-8.328 a 7.1275812,7.014 0 0 0 -6.9528,-7.654 z m 258.7045,-9.174 -0.1523,-4.348 h -2.4633 v 28.928 h 2.8453 v -21.6 c 5.0465,-3.498 8.3328,-5.272 12.0277,-5.272 h 1.571 l 0.6097,-2.734 h -1.9958 c -3.7742,0.006 -7.7475,1.606 -12.43,5.046 z m -13.6779,10.106 c 0,11.038 -3.5099,15.142 -12.9464,15.142 -9.4363,0 -12.9401,-4.104 -12.9401,-15.142 0,-11.038 3.5079,-15.142 12.9401,-15.142 9.4324,0 12.9585,4.124 12.9585,15.162 z m -22.9945,0 c 0,9.4 2.4389,12.41 10.0481,12.41 7.6094,0 10.0523,-3.016 10.0523,-12.41 0,-9.394 -2.4389,-12.4 -10.0523,-12.4 -7.6132,0 -10.0358,3.026 -10.0358,12.42 z m 79.3912,-14.454 v 21.6 c -4.7273,3.414 -8.0503,5.264 -11.8508,5.264 -3.9307,0 -5.6908,-1.744 -5.6908,-5.65 v -21.194 h -2.8453 v 21.384 c 0,5.296 2.9206,8.212 8.2291,8.212 a 20.356388,20.032 0 0 0 12.3712,-5 l 0.1483,4.306 h 2.4613 v -28.902 z m -91.8903,14.454 c 0,10.756 -3.4815,15.142 -12.0135,15.142 a 44.864944,44.15 0 0 1 -11.9443,-1.8 l -0.5345,-0.142 v -40.26 h 2.8453 v 14.246 c 0,0.954 0,1.752 -0.028,2.552 4.142,-3.366 7.5198,-4.884 10.8306,-4.884 7.8145,0.02 10.857,4.27 10.857,15.166 z m -21.6552,11.144 a 35.473283,34.908 0 0 0 9.6417,1.266 c 6.7292,0 9.1174,-3.248 9.1174,-12.41 0,-10.378 -2.9166,-12.4 -7.9549,-12.4 -3.455,0 -6.595,1.96 -10.8042,5.356 z m -134.0459,3.33 h 2.8453 v -28.908 h -2.8453 z m 120.3355,-14.456 c 0,11.038 -3.5099,15.142 -12.9443,15.142 -9.4343,0 -12.9422,-4.104 -12.9422,-15.142 0,-11.038 3.5079,-15.142 12.9422,-15.142 9.4344,0 12.9443,4.106 12.9443,15.144 z m -22.9944,0 c 0,9.4 2.4389,12.41 10.0501,12.41 7.6113,0 10.0481,-3.016 10.0481,-12.41 0,-9.394 -2.4388,-12.4 -10.0481,-12.4 -7.6092,0 -10.0501,3.008 -10.0501,12.402 z m -99.8207,-18.718 1.8576,1.696 9.9587,-9.034 -2.1055,-1.962 z m 52.2811,16.83 c 0.3171,-0.27 0.6403,-0.568 0.8394,-0.766 l 11.737,-11.8 h -3.8757 l -11.231,11.112 h -3.7437 c 0.1159,-1.302 0.1606,-2.458 0.1606,-3.99 v -19.724 h -2.9469 v 41.512 h 2.8331 v -10.846 c 0,-1.486 0,-2.8 -0.073,-4.276 h 3.7233 l 12.0074,14.856 0.2032,0.266 h 3.6441 l -12.3813,-15.336 a 11.424048,11.242 0 0 0 -0.8963,-1.006 z"
         fill="#272425"
         style="stroke-width:2.01613;fill:#ffffff;fill-opacity:1" /><g
         id="Group_7"
         data-name="Group 7"
         transform="matrix(2.1757359,0,0,2.0973584,-868.47316,-148.20276)"
         style="fill:#4fffd4;fill-opacity:1"><rect
           id="Rectangle_3"
           data-name="Rectangle 3"
           width="219.26401"
           height="1.684"
           transform="translate(852.697,166.752)"
           fill="#51bcb1"
           x="0"
           y="0"
           style="fill:#4fffd4;fill-opacity:1" /></g><path
         id="Path_15"
         data-name="Path 15"
         d="m 941.90536,107.21891 a 31.190724,31.190724 0 0 0 -27.18672,15.89877 l -18.23349,32.41786 q -0.74441,1.40536 -1.35348,2.79492 a 46.072131,46.072131 0 0 0 -3.78294,17.0244 c -0.0948,2.62573 -0.1534,4.6627 -0.18724,6.15829 0.0248,1.49558 0.0835,4.21831 0.22558,8.36671 a 45.160794,45.160794 0 0 0 3.90702,17.14395 q 0.33837,0.74892 0.71734,1.49784 l 18.77489,33.73976 a 31.026051,31.026051 0 0 0 27.11226,15.94163 v 0 l -42.4561,-75.49658 z"
         fill="#51bcb1"
         style="stroke-width:2.25578;fill:#ffffff;fill-opacity:1" /><path
         id="Path_16"
         data-name="Path 16"
         d="m 828.87028,107.21891 a 31.190724,31.190724 0 0 1 27.18671,15.89877 l 18.2335,32.41786 q 0.74441,1.40536 1.35347,2.79492 a 46.078898,46.078898 0 0 1 3.78295,17.0244 c 0.0947,2.62573 0.15114,4.6627 0.18723,6.15829 -0.0248,1.49558 -0.0834,4.21831 -0.22558,8.36671 a 45.158538,45.158538 0 0 1 -3.90702,17.14395 q -0.33837,0.74892 -0.71733,1.49784 l -18.77489,33.73976 a 31.026051,31.026051 0 0 1 -27.11228,15.94163 v 0 l 42.44709,-75.49658 z"
         fill="#51bcb1"
         style="stroke-width:2.25578;fill:#ffffff;fill-opacity:1" /><path
         id="Path_17"
         data-name="Path 17"
         d="m 886.32284,238.00024 -0.26844,-2.87613 c -0.0384,-0.41055 -0.0563,-0.82336 -0.0563,-1.23617 v -60.1595 a 39.424335,39.424335 0 0 1 2.90545,-15.03029 c 5.0146,-12.16319 14.88816,-27.36942 21.0036,-37.28133 l -0.22558,0.15114 c -1.22489,0.8414 -6.05678,9.48782 -24.29254,9.48782 -17.59511,0 -22.14277,-8.64642 -23.36541,-9.48782 l -0.22557,-0.15114 c 5.98233,9.68633 15.00998,24.43464 19.86442,36.44895 a 43.119309,43.119309 0 0 1 3.1175,16.14464 v 59.79406 a 10.356304,10.356304 0 0 1 -0.0541,1.05797 l -0.32934,3.14231 a 9.2667602,9.2667602 0 0 1 -0.22558,1.26774 c -2.83101,11.41428 -11.03078,18.92153 -26.71976,18.92153 h 55.77651 c -15.68898,0 -23.8865,-7.505 -26.71976,-18.91701 a 8.7546972,8.7546972 0 0 1 -0.18497,-1.27677 z"
         fill="url(#linear-gradient)"
         style="fill:#ffffff;stroke-width:2.25578;fill-opacity:1" /><path
         style="font-weight:600;font-size:66.0727px;line-height:0;font-family:'Exo 2';-inkscape-font-specification:'Exo 2 Semi-Bold';letter-spacing:9.2px;word-spacing:0px;fill:#4fffd4;stroke-width:1.51181"
         d="m 904.36867,732.23232 -8.58945,30.32736 q -0.26429,0.92502 -1.05717,1.51968 -0.79287,0.59465 -1.85003,0.59465 h -6.40905 q -1.05717,0 -1.91611,-0.66073 -0.85895,-0.66072 -0.99109,-1.78396 l -4.29473,-19.88788 q -0.26429,-1.32146 -0.46251,-2.64291 -0.13214,-1.32145 -0.39643,-2.64291 h -0.85895 q -0.19822,1.32146 -0.46251,2.64291 -0.19821,1.32145 -0.46251,2.64291 l -4.22865,19.88788 q -0.19822,1.12324 -1.05716,1.78396 -0.79287,0.66073 -1.91611,0.66073 h -6.34298 q -1.05716,0 -1.85003,-0.59465 -0.79288,-0.59466 -0.9911,-1.51968 l -8.65552,-30.32736 h 8.12694 l 5.41796,22.2665 q 0.2643,1.25538 0.46251,2.57683 0.26429,1.25538 0.46251,2.51076 h 0.79287 q 0.33037,-1.25538 0.52859,-2.51076 0.26429,-1.32145 0.52858,-2.57683 l 4.29472,-19.82181 q 0.19822,-1.05717 0.92502,-1.7179 0.79287,-0.72679 1.98218,-0.72679 h 5.8144 q 1.05716,0 1.85004,0.72679 0.79287,0.66073 0.99109,1.78397 l 4.29472,19.75574 q 0.19822,1.25538 0.46251,2.51076 0.33036,1.25538 0.52858,2.57683 h 0.79287 q 0.2643,-1.32145 0.46251,-2.51076 0.19822,-1.25538 0.52859,-2.57683 l 5.41796,-22.2665 z m 64.63504,0 -8.58945,30.32736 q -0.26429,0.92502 -1.05717,1.51968 -0.79287,0.59465 -1.85003,0.59465 h -6.40905 q -1.05717,0 -1.91611,-0.66073 -0.85895,-0.66072 -0.99109,-1.78396 l -4.29473,-19.88788 q -0.26429,-1.32146 -0.46251,-2.64291 -0.13214,-1.32145 -0.39643,-2.64291 h -0.85895 q -0.19822,1.32146 -0.46251,2.64291 -0.19821,1.32145 -0.46251,2.64291 l -4.22865,19.88788 q -0.19822,1.12324 -1.05716,1.78396 -0.79287,0.66073 -1.91611,0.66073 h -6.34298 q -1.05716,0 -1.85003,-0.59465 -0.79288,-0.59466 -0.99109,-1.51968 l -8.65553,-30.32736 h 8.12694 l 5.41796,22.2665 q 0.2643,1.25538 0.46251,2.57683 0.26429,1.25538 0.46251,2.51076 h 0.79288 q 0.33036,-1.25538 0.52858,-2.51076 0.26429,-1.32145 0.52858,-2.57683 l 4.29472,-19.82181 q 0.19822,-1.05717 0.92502,-1.7179 0.79287,-0.72679 1.98218,-0.72679 h 5.8144 q 1.05716,0 1.85004,0.72679 0.79287,0.66073 0.99109,1.78397 l 4.29472,19.75574 q 0.19822,1.25538 0.46251,2.51076 0.33036,1.25538 0.52858,2.57683 h 0.79287 q 0.2643,-1.32145 0.46251,-2.51076 0.19822,-1.25538 0.52859,-2.57683 l 5.41796,-22.2665 z m 64.63499,0 -8.5894,30.32736 q -0.2643,0.92502 -1.0572,1.51968 -0.7928,0.59465 -1.85,0.59465 h -6.4091 q -1.0571,0 -1.9161,-0.66073 -0.8589,-0.66072 -0.9911,-1.78396 l -4.2947,-19.88788 q -0.2643,-1.32146 -0.4625,-2.64291 -0.1321,-1.32145 -0.3964,-2.64291 h -0.859 q -0.1982,1.32146 -0.4625,2.64291 -0.1982,1.32145 -0.4625,2.64291 l -4.2286,19.88788 q -0.1983,1.12324 -1.0572,1.78396 -0.79287,0.66073 -1.91611,0.66073 h -6.34298 q -1.05716,0 -1.85003,-0.59465 -0.79288,-0.59466 -0.99109,-1.51968 l -8.65553,-30.32736 h 8.12694 l 5.41797,22.2665 q 0.26429,1.25538 0.4625,2.57683 0.26429,1.25538 0.46251,2.51076 h 0.79288 q 0.33036,-1.25538 0.52858,-2.51076 0.26429,-1.32145 0.52858,-2.57683 l 4.29468,-19.82181 q 0.1983,-1.05717 0.9251,-1.7179 0.7928,-0.72679 1.9821,-0.72679 h 5.8144 q 1.0572,0 1.8501,0.72679 0.7928,0.66073 0.9911,1.78397 l 4.2947,19.75574 q 0.1982,1.25538 0.4625,2.51076 0.3304,1.25538 0.5286,2.57683 h 0.7929 q 0.2642,-1.32145 0.4625,-2.51076 0.1982,-1.25538 0.5285,-2.57683 l 5.418,-22.2665 z m 18.1215,23.38973 q 1.6518,0 2.2465,0.66073 0.6607,0.59465 0.6607,2.1804 v 3.30363 q 0,1.65182 -0.6607,2.31255 -0.5947,0.59465 -2.2465,0.59465 h -2.1804 q -1.5857,0 -2.2464,-0.59465 -0.6608,-0.66073 -0.6608,-2.31255 v -3.30363 q 0,-1.58575 0.6608,-2.1804 0.6607,-0.66073 2.2464,-0.66073 z m 50.5616,-23.38973 -9.6466,15.79137 10.4395,16.65032 h -8.2591 l -10.0431,-16.65032 9.2502,-15.79137 z m -24.513,0 9.2502,15.79137 -9.9109,16.65032 h -8.3912 l 10.4394,-16.65032 -9.6466,-15.79137 z m 12.6199,12.95024 v 5.35189 h -8.8537 v -5.35189 z m 40.3203,-28.01482 q 1.1232,0 2.9072,0.0661 1.85,0.0661 3.7661,0.19822 1.9161,0.0661 3.2376,0.33036 l -0.6607,5.35189 h -6.4091 q -2.7751,0 -3.8983,1.12324 -1.1232,1.12323 -1.1232,3.76614 v 36.67035 h -7.9948 v -37.66144 q 0,-3.10541 0.9911,-5.28581 0.9911,-2.1804 3.2375,-3.36971 2.2465,-1.18931 5.9466,-1.18931 z m 7.4662,15.06458 v 5.5501 h -23.3897 v -5.21974 l 6.0126,-0.33036 z m 22.6788,0 v 21.93613 q -0.066,2.44469 0.925,3.50185 1.0572,1.05717 3.3697,1.05717 2.3126,0 4.6251,-0.99109 2.3125,-0.99109 5.6162,-2.97327 l 0.7929,4.75723 q -3.7001,2.97327 -7.1359,4.49294 -3.4358,1.51968 -7.1359,1.51968 -9.0519,0 -9.0519,-8.91982 v -24.38082 z m 21.7379,0 v 32.44169 h -6.343 l -0.8589,-6.27691 -0.7929,-0.92501 v -25.23977 z m 28.8897,-9.25018 v 31.91311 q 0,2.04826 0.8589,2.9072 0.925,0.85895 3.1054,0.85895 h 4.493 l 0.8589,5.61618 q -1.1232,0.33036 -2.7089,0.59465 -1.5858,0.26429 -3.1055,0.33036 -1.5196,0.13215 -2.5768,0.13215 -4.2287,0 -6.6073,-2.24647 -2.3125,-2.31255 -2.3125,-6.60727 v -33.49886 z m 9.6466,9.25018 v 5.5501 h -23.3897 v -5.21974 l 6.3429,-0.33036 z m 22.877,0 v 21.93613 q -0.066,2.44469 0.925,3.50185 1.0572,1.05717 3.3697,1.05717 2.3126,0 4.6251,-0.99109 2.3126,-0.99109 5.6162,-2.97327 l 0.7929,4.75723 q -3.7001,2.97327 -7.1359,4.49294 -3.4358,1.51968 -7.1358,1.51968 -9.052,0 -9.052,-8.91982 v -24.38082 z m 21.7379,0 v 32.44169 h -6.343 l -0.8589,-6.27691 -0.7929,-0.92501 v -25.23977 z m 24.3968,0 1.0571,6.34297 0.7268,0.92502 v 25.1737 h -7.9948 v -32.44169 z m 15.8574,-0.79288 -0.7929,7.40015 h -2.3125 q -2.5769,0 -5.2198,0.85894 -2.6429,0.85895 -6.6072,2.57684 l -0.5286,-4.69117 q 3.4358,-2.90719 7.0037,-4.49294 3.5679,-1.65182 6.8716,-1.65182 z m 28.4008,0 q 7.8627,0 11.2984,2.77506 3.4358,2.70898 3.5019,8.06087 0.066,4.42687 -2.1143,6.73941 -2.1144,2.24647 -7.0698,2.24647 h -18.5004 v -4.95545 h 16.32 q 2.2465,0 2.8411,-1.18931 0.6607,-1.18931 0.6607,-2.9072 -0.066,-2.70898 -1.5857,-3.76614 -1.4536,-1.05716 -5.0215,-1.05716 -3.1054,0 -4.8233,0.85894 -1.7179,0.85895 -2.4447,3.10542 -0.6607,2.24647 -0.6607,6.47512 0,4.49295 0.8589,6.93764 0.8589,2.44469 2.8411,3.3697 1.9822,0.85895 5.2858,0.85895 2.4447,0 5.6162,-0.19822 3.2376,-0.19822 6.2109,-0.52858 l 0.7928,5.0876 q -1.7839,0.7268 -4.0965,1.18931 -2.3125,0.4625 -4.8233,0.66072 -2.4447,0.26429 -4.6251,0.26429 -5.9465,0 -9.5805,-1.71789 -3.5679,-1.78396 -5.2198,-5.5501 -1.5857,-3.76615 -1.5857,-9.71269 0,-6.40905 1.5857,-10.10912 1.6519,-3.76615 5.1537,-5.35189 3.5679,-1.58575 9.1841,-1.58575 z m 35.6291,24.18261 q 1.6518,0 2.2465,0.66073 0.6607,0.59465 0.6607,2.1804 v 3.30363 q 0,1.65182 -0.6607,2.31255 -0.5947,0.59465 -2.2465,0.59465 h -2.1804 q -1.5857,0 -2.2465,-0.59465 -0.6607,-0.66073 -0.6607,-2.31255 v -3.30363 q 0,-1.58575 0.6607,-2.1804 0.6608,-0.66073 2.2465,-0.66073 z m 35.0345,-24.18261 q 1.6518,0 3.634,0.13215 1.9822,0.13214 4.0304,0.52858 2.0483,0.39644 3.7001,1.12324 l -0.925,5.02152 q -2.4447,-0.13214 -4.8894,-0.19822 -2.3786,-0.0661 -4.1626,-0.0661 -3.3697,0 -5.3519,0.92502 -1.9161,0.85894 -2.775,3.17149 -0.859,2.24647 -0.859,6.34298 0,4.0965 0.859,6.40905 0.8589,2.24647 2.775,3.17149 1.9822,0.92502 5.3519,0.92502 0.9911,0 2.5769,-0.0661 1.6518,-0.0661 3.5018,-0.19821 1.9161,-0.13215 3.7001,-0.33037 l 0.7929,5.15367 q -2.5769,1.05717 -5.7484,1.51967 -3.1715,0.46251 -6.2769,0.46251 -5.8144,0 -9.3162,-1.65181 -3.5019,-1.65182 -5.0876,-5.35189 -1.5197,-3.76615 -1.5197,-10.04305 0,-6.27691 1.5857,-9.97698 1.5858,-3.76614 5.0876,-5.35189 3.5019,-1.65182 9.3163,-1.65182 z m 45.2757,6.60727 9.118,0.0661 -19.2272,20.8129 -9.118,-0.0661 z m 9.3823,20.8129 v 5.8144 h -28.6095 v -5.8144 z m -0.2643,-26.62729 v 5.88047 h -28.0809 v -5.88047 z"
         id="text8"
         transform="scale(0.99108922,1.0089909)"
         aria-label="www.xfuture.cz" /><g
         id="text13"
         style="font-size:231.397px;line-height:1.1;font-family:Arial;-inkscape-font-specification:Arial;letter-spacing:9.47812px;word-spacing:0px;white-space:pre;fill:#ffffff;stroke-width:37.7953"
         transform="matrix(0.23988868,0,0,0.25619114,696.289,-10.682141)"
         aria-label="Komplexní IT služby, bezpečnost a &#10;moderní řešení na míru"><path
           style="font-weight:600;font-family:'Exo 2';-inkscape-font-specification:'Exo 2 Semi-Bold';text-align:center;baseline-shift:baseline;text-anchor:middle"
           d="m 825.62558,1480.7646 -43.73403,65.0226 q -2.31397,3.7023 -4.85934,6.4791 -2.54537,2.5454 -5.55353,4.8593 v 0.6942 q 3.23956,2.314 6.47912,5.5536 3.23956,3.2395 5.32213,6.9419 l 45.35381,70.1133 h -32.39558 l -52.52712,-83.5344 50.44455,-76.1296 z m -90.24483,0 v 47.205 q 0,7.4047 -1.15698,14.578 -0.92559,7.1733 -3.00817,14.3466 1.61978,6.7106 2.77677,13.8839 1.38838,6.9419 1.38838,13.421 v 56.2295 h -28.92463 v -159.664 z m 20.36294,65.9482 v 21.0571 h -29.61882 v -21.0571 z m 148.47529,-22.6769 q 20.82573,0 33.08977,5.7849 12.49544,5.7849 17.81757,18.9745 5.55353,13.1897 5.55353,34.941 0,21.7513 -5.55353,34.9409 -5.32213,12.9583 -17.81757,18.9746 -12.26404,5.7849 -33.08977,5.7849 -20.36293,0 -32.85837,-5.7849 -12.26404,-6.0163 -17.81757,-18.9746 -5.55353,-13.1896 -5.55353,-34.9409 0,-21.7513 5.55353,-34.941 5.55353,-13.1896 17.81757,-18.9745 12.49544,-5.7849 32.85837,-5.7849 z m 0,21.2885 q -10.18147,0 -16.19779,3.4709 -5.78492,3.2396 -8.33029,11.5699 -2.54537,8.3303 -2.54537,23.3711 0,15.0408 2.54537,23.3711 2.54537,8.3303 8.33029,11.5698 6.01632,3.2396 16.19779,3.2396 10.41287,0 16.42919,-3.2396 6.01632,-3.2395 8.33029,-11.5698 2.54537,-8.3303 2.54537,-23.3711 0,-15.0408 -2.54537,-23.3711 -2.31397,-8.3303 -8.33029,-11.5699 -6.01632,-3.4709 -16.42919,-3.4709 z m 233.93322,-21.2885 q 15.0408,0 22.9083,8.0989 8.0989,7.8675 8.0989,23.1397 v 85.1541 h -27.7677 v -76.5924 q -0.2314,-8.5617 -3.4709,-12.2641 -3.2396,-3.9337 -11.3385,-3.9337 -4.8593,0 -9.4872,1.6197 -4.3966,1.3884 -9.9501,4.628 -5.5535,3.2395 -13.421,8.5617 l -1.6198,-16.892 q 11.8012,-10.8757 22.6769,-16.1978 11.107,-5.3221 23.3711,-5.3221 z m -119.1695,2.7767 2.7768,22.2141 2.7768,3.2396 v 88.1623 h -27.99908 v -113.616 z m 46.7422,-2.7767 q 14.8094,0 22.6769,7.8675 7.8675,7.8675 7.8675,23.3711 v 85.1541 h -26.842 v -76.5924 q 0,-9.0245 -3.7024,-12.4955 -3.7023,-3.7023 -11.107,-3.7023 -4.628,0 -9.2559,1.3883 -4.628,1.3884 -10.1815,4.628 -5.5535,3.2395 -13.8838,8.7931 l -1.6198,-16.892 q 11.5699,-10.8757 22.6769,-16.1978 11.1071,-5.3221 23.3711,-5.3221 z m 214.2644,0 q 21.0572,0 30.313,15.5036 9.2559,15.5036 9.2559,44.891 0,22.4455 -4.8593,35.4037 -4.6279,12.7269 -14.1152,18.2804 -9.4873,5.3221 -24.0653,5.3221 -11.5699,0 -22.6769,-3.2395 -10.8757,-3.471 -20.1316,-10.6443 l 1.8512,-13.8838 q 9.0245,2.5453 16.1978,4.3965 7.1733,1.8512 15.735,1.8512 8.5617,0 13.421,-2.7768 5.0908,-3.0081 7.4047,-11.107 2.314,-8.0989 2.314,-23.3711 0,-15.0408 -2.0826,-23.3711 -2.0825,-8.3303 -6.9419,-11.5699 -4.6279,-3.4709 -12.264,-3.4709 -8.3303,0 -15.735,3.7023 -7.4047,3.471 -17.1234,10.4129 l -3.2396,-14.8094 q 5.3222,-6.2477 12.7269,-11.1071 7.6361,-4.8593 16.4292,-7.6361 8.7931,-2.7767 17.5861,-2.7767 z m -47.8991,2.7767 2.7767,21.9827 2.5454,3.2396 v 73.3529 l -1.157,2.7767 q 0.6942,6.7105 0.9256,13.421 0.2314,6.942 0.2314,14.1153 v 29.8502 h -27.999 v -158.7384 z m 151.7875,-48.3619 v 127.7311 q 0,6.4791 3.7023,9.9501 3.7024,3.2395 10.6443,3.2395 h 9.95 l 3.2396,19.6688 q -2.5454,1.157 -7.1733,2.0826 -4.3966,0.9255 -9.2559,1.1569 -4.6279,0.4628 -8.0989,0.4628 -14.1152,0 -22.4455,-7.6361 -8.3303,-7.6361 -8.3303,-21.9827 v -134.673 z m 105.0451,45.5852 q 27.5363,0 39.5689,9.7186 12.0327,9.4873 12.2641,28.2305 0.2314,15.5036 -7.4047,23.6025 -7.4047,7.8675 -24.7595,7.8675 h -64.7912 v -17.3548 h 57.1551 q 7.8675,0 9.9501,-4.1652 2.3139,-4.1651 2.3139,-10.1814 -0.2314,-9.4873 -5.5535,-13.1896 -5.0907,-3.7024 -17.5862,-3.7024 -10.8756,0 -16.8919,3.0082 -6.0164,3.0081 -8.5617,10.8756 -2.314,7.8675 -2.314,22.6769 0,15.735 3.0082,24.2967 3.0081,8.5617 9.95,11.8013 6.9419,3.0081 18.5118,3.0081 8.5617,0 19.6687,-0.6942 11.3385,-0.6942 21.7513,-1.8511 l 2.7768,17.8175 q -6.2477,2.5454 -14.3466,4.1652 -8.0989,1.6197 -16.892,2.3139 -8.5617,0.9256 -16.1978,0.9256 -20.8257,0 -33.5525,-6.0163 -12.4955,-6.2477 -18.2804,-19.4373 -5.5535,-13.1897 -5.5535,-34.0154 0,-22.4455 5.5535,-35.4037 5.7849,-13.1897 18.049,-18.7432 12.4954,-5.5535 32.1641,-5.5535 z m 191.5516,2.7767 -33.784,55.3039 36.5607,58.3121 h -28.9246 l -35.1723,-58.3121 32.3955,-55.3039 z m -85.8483,0 32.3956,55.3039 -34.7096,58.3121 h -29.3874 l 36.5607,-58.3121 -33.7839,-55.3039 z m 44.1968,45.3538 v 18.7432 h -31.0072 v -18.7432 z m 148.085,-48.1305 q 31.7014,0 31.7014,31.2386 v 85.1541 h -27.999 v -76.5924 q 0,-9.2559 -3.2396,-12.7269 -3.2395,-3.4709 -10.8756,-3.4709 -8.5617,0 -17.5862,3.9337 -9.0245,3.7024 -21.7513,10.8757 l -1.157,-16.892 q 12.4954,-10.4129 25.4537,-15.9664 12.9582,-5.5535 25.4536,-5.5535 z m -51.8329,2.7767 2.7768,22.2141 2.3139,3.2396 v 88.1623 h -27.999 v -113.616 z m 152.713,0 v 113.616 h -27.999 v -113.616 z m 11.3385,-60.3946 13.421,19.9002 -48.8247,26.6106 -8.5617,-12.264 z m 121.6963,14.3466 v 159.664 h -28.9247 v -159.664 z m 110.367,0 v 159.664 h -28.9246 v -159.664 z m 49.519,0 v 23.6025 h -127.9626 v -23.6025 z m 125.7639,43.2713 q 7.8675,0 16.8919,0.4628 9.2559,0.4628 18.049,1.3883 8.7931,0.6942 15.735,2.0826 l -1.8512,18.2804 q -11.107,-0.2314 -22.2141,-0.4628 -10.8756,-0.4628 -21.5199,-0.4628 -9.4873,0 -15.0408,0.4628 -5.3221,0.4628 -7.6361,2.7768 -2.0826,2.3139 -2.0826,7.8674 0,6.7106 3.7024,9.0245 3.7023,2.0826 12.0326,4.1652 l 31.0072,7.1733 q 13.8838,3.4709 20.5943,10.6442 6.7106,6.942 6.7106,21.52 0,14.1152 -5.3222,21.5199 -5.0907,7.1733 -16.4292,9.9501 -11.107,2.5453 -28.4618,2.5453 -6.7105,0 -19.9001,-0.6942 -13.1897,-0.4628 -28.9247,-3.0081 l 1.8512,-18.2804 q 4.628,0 10.8757,0.2314 6.4791,0.2314 13.6524,0.2314 7.4047,0 15.0408,0 12.2641,0 18.7432,-0.6942 6.7105,-0.9256 9.2558,-3.4709 2.5454,-2.7768 2.5454,-7.8675 0,-6.4792 -4.3965,-8.5617 -4.1652,-2.314 -12.4955,-4.3966 l -30.313,-7.4047 q -10.4128,-2.7767 -16.1978,-6.9419 -5.7849,-4.3965 -8.3303,-10.6442 -2.5453,-6.4792 -2.5453,-15.735 0,-12.4955 4.6279,-19.4374 4.8594,-6.9419 15.0408,-9.7187 10.4129,-2.7767 27.3049,-2.5453 z m 117.0777,-45.5852 v 127.7311 q 0,6.4791 3.7024,9.9501 3.7023,3.2395 10.6443,3.2395 h 9.95 l 3.2396,19.6688 q -2.5454,1.157 -7.1733,2.0826 -4.3966,0.9255 -9.2559,1.1569 -4.6279,0.4628 -8.0989,0.4628 -14.1152,0 -22.4455,-7.6361 -8.3303,-7.6361 -8.3303,-21.9827 v -134.673 z m 81.6741,48.3619 v 76.8238 q -0.2314,8.5617 3.2396,12.2641 3.7024,3.7023 11.8012,3.7023 8.0989,0 16.1978,-3.4709 8.0989,-3.471 19.6688,-10.4129 l 2.7767,16.6606 q -12.9582,10.4129 -24.9908,15.735 -12.0327,5.3221 -24.9909,5.3221 -31.7014,0 -31.7014,-31.2386 v -85.3855 z m 76.1297,0 v 113.616 H 2559.14 l -3.0081,-21.9828 -2.7768,-3.2395 v -88.3937 z m 102.4997,20.363 31.9328,0.2314 -67.3366,72.89 -31.9328,-0.2314 z m 32.8583,72.89 v 20.363 h -100.1949 v -20.363 z m -0.9255,-93.253 v 20.5944 h -98.3438 v -20.5944 z m -16.1978,-57.8492 8.0989,11.107 -34.4782,29.8503 h -12.0326 l -34.4782,-29.8503 8.0989,-11.107 31.47,19.4373 h 1.8512 z m 119.3915,55.0725 q 21.7513,0 31.7014,13.6524 9.9501,13.6524 9.9501,45.3538 0,13.6524 -2.5454,24.7595 -2.314,11.107 -8.3303,19.2059 -5.7849,7.8675 -16.1978,12.0327 -10.4129,4.1651 -26.6107,4.1651 -5.7849,0 -13.1896,-0.4628 -7.4047,-0.4628 -15.0408,-1.6197 -7.6361,-1.157 -14.8094,-2.5454 -6.9419,-1.6198 -12.4954,-3.9338 l 22.4455,-17.1233 q 5.0907,1.6197 10.6442,2.7767 5.785,0.9256 11.3385,1.3884 5.7849,0.2314 10.6443,0.2314 9.2558,-0.2314 14.578,-3.7024 5.5535,-3.4709 8.0989,-11.8012 2.5453,-8.5617 2.5453,-23.3711 0,-13.8838 -2.0825,-21.7513 -1.8512,-8.0989 -6.942,-11.3385 -5.0907,-3.2395 -14.578,-3.2395 -8.3303,0 -15.5036,3.9337 -6.9419,3.9338 -16.1978,10.6443 l -1.8511,-15.0408 q 6.2477,-6.7105 13.1896,-11.8013 7.1733,-5.0907 15.0408,-7.6361 8.0989,-2.7767 16.1978,-2.7767 z m -39.5689,-45.5852 0.2314,39.3374 q 0,7.4048 -0.6942,14.3467 -0.4628,6.7105 -2.314,13.1896 l 2.7768,3.2396 v 87.468 l -27.999,-1.3884 v -156.1929 z m 224.1115,48.3619 -42.577,117.0869 q -3.0082,8.0989 -7.6361,15.9664 -4.3966,8.0989 -11.3385,14.578 -6.9419,6.4791 -16.4292,10.1815 -9.4873,3.7023 -21.9827,2.7768 l -2.314,-16.6606 q 13.8839,-3.9338 21.52,-10.6443 7.8675,-6.7105 12.264,-17.1234 l 6.2477,-14.8094 q 2.0826,-5.0907 3.9338,-11.5698 2.0825,-6.7105 3.4709,-11.5699 l 24.7595,-78.2122 z m -91.6332,0 25.2223,78.2122 q 1.157,3.9338 2.0825,8.0989 0.9256,3.9338 1.6198,7.8675 h 5.785 l -8.7931,19.4374 h -7.4047 q -3.2396,0 -5.785,-1.8512 -2.5453,-1.8512 -3.4709,-5.0907 l -39.1061,-106.6741 z m 127.8917,81.9146 q 5.5536,0 7.6361,2.3139 2.0826,2.0826 2.314,7.6361 v 14.8095 q 0,8.0988 -1.3884,14.8094 -1.157,6.9419 -3.4709,12.9582 -2.314,6.0163 -5.5535,11.8012 l -11.8013,-3.7023 q 1.6198,-7.4047 2.314,-14.1152 0.6942,-6.4791 0.6942,-14.8094 -7.8675,0 -8.0989,-8.7931 l 0.2314,-12.9583 q 0.2314,-5.5535 2.5453,-7.6361 2.314,-2.3139 7.6361,-2.3139 z"
           id="path1" /><path
           style="font-weight:600;font-family:'Exo 2';-inkscape-font-specification:'Exo 2 Semi-Bold';text-align:center;baseline-shift:baseline;text-anchor:middle"
           d="m 1162.9006,1791.7033 q 21.7514,0 31.7014,13.6525 9.9501,13.6524 9.9501,45.3538 0,13.6524 -2.5454,24.7595 -2.3139,11.107 -8.3303,19.2059 -5.7849,7.8675 -16.1977,12.0327 -10.4129,4.1651 -26.6107,4.1651 -5.7849,0 -13.1896,-0.4628 -7.4047,-0.4628 -15.0408,-1.6198 -7.6361,-1.157 -14.8094,-2.5453 -6.942,-1.6198 -12.4955,-3.9338 l 22.4455,-17.1234 q 5.0908,1.6198 10.6443,2.7768 5.7849,0.9256 11.3384,1.3884 5.785,0.2314 10.6443,0.2314 9.2559,-0.2314 14.578,-3.7024 5.5535,-3.4709 8.0989,-11.8012 2.5454,-8.5617 2.5454,-23.3711 0,-13.8838 -2.0826,-21.7513 -1.8512,-8.0989 -6.9419,-11.3385 -5.0907,-3.2395 -14.578,-3.2395 -8.3303,0 -15.5036,3.9337 -6.9419,3.9338 -16.1978,10.6443 l -1.8512,-15.0408 q 6.2477,-6.7106 13.1896,-11.8013 7.1734,-5.0907 15.0409,-7.6361 8.0988,-2.7768 16.1977,-2.7768 z m -39.5688,-45.5852 0.2314,39.3375 q 0,7.4047 -0.6942,14.3466 -0.4628,6.7106 -2.314,13.1897 l 2.7768,3.2395 v 87.4681 l -27.9991,-1.3884 v -156.193 z m 167.7535,45.5852 q 27.5363,0 39.5689,9.7187 12.0327,9.4873 12.2641,28.2305 0.2314,15.5036 -7.4047,23.6025 -7.4047,7.8675 -24.7595,7.8675 h -64.7912 v -17.3548 h 57.1551 q 7.8675,0 9.9501,-4.1652 2.3139,-4.1651 2.3139,-10.1814 -0.2314,-9.4873 -5.5535,-13.1897 -5.0907,-3.7023 -17.5862,-3.7023 -10.8756,0 -16.892,3.0081 -6.0163,3.0082 -8.5616,10.8757 -2.314,7.8675 -2.314,22.6769 0,15.735 3.0082,24.2967 3.0081,8.5617 9.95,11.8012 6.9419,3.0082 18.5118,3.0082 8.5617,0 19.6687,-0.6942 11.3385,-0.6942 21.7513,-1.8512 l 2.7768,17.8176 q -6.2477,2.5454 -14.3466,4.1651 -8.0989,1.6198 -16.892,2.314 -8.5617,0.9256 -16.1978,0.9256 -20.8257,0 -33.5525,-6.0163 -12.4955,-6.2477 -18.2804,-19.4374 -5.5535,-13.1896 -5.5535,-34.0153 0,-22.4455 5.5535,-35.4038 5.7849,-13.1896 18.049,-18.7431 12.4954,-5.5536 32.1641,-5.5536 z m 148.085,23.1397 31.9328,0.2314 -67.3365,72.8901 -31.9328,-0.2314 z m 32.8584,72.8901 v 20.3629 h -100.1949 v -20.3629 z m -0.9256,-93.253 v 20.5943 h -98.3437 v -20.5943 z m 106.6646,-2.7768 q 21.0571,0 30.313,15.5036 9.2559,15.5036 9.2559,44.8911 0,22.4455 -4.8593,35.4037 -4.628,12.7268 -14.1153,18.2804 -9.4872,5.3221 -24.0652,5.3221 -11.5699,0 -22.6769,-3.2396 -10.8757,-3.4709 -20.1316,-10.6442 l 1.8512,-13.8838 q 9.0245,2.5453 16.1978,4.3965 7.1733,1.8512 15.735,1.8512 8.5617,0 13.421,-2.7768 5.0907,-3.0081 7.4047,-11.107 2.314,-8.0989 2.314,-23.3711 0,-15.0408 -2.0826,-23.3711 -2.0826,-8.3303 -6.9419,-11.5699 -4.6279,-3.4709 -12.264,-3.4709 -8.3303,0 -15.735,3.7023 -7.4047,3.471 -17.1234,10.4129 l -3.2396,-14.8094 q 5.3222,-6.2477 12.7269,-11.1071 7.6361,-4.8593 16.4291,-7.6361 8.7931,-2.7768 17.5862,-2.7768 z m -47.8992,2.7768 2.7768,21.9827 2.5454,3.2396 v 73.3528 l -1.157,2.7768 q 0.6942,6.7105 0.9256,13.421 0.2314,6.9419 0.2314,14.1152 v 29.8503 h -27.9991 v -158.7384 z m 174.4645,-2.7768 q 27.5362,0 39.5689,9.7187 12.0326,9.4873 12.264,28.2305 0.2314,15.5036 -7.4047,23.6025 -7.4047,7.8675 -24.7595,7.8675 h -64.7912 v -17.3548 h 57.1551 q 7.8675,0 9.9501,-4.1652 2.314,-4.1651 2.314,-10.1814 -0.2314,-9.4873 -5.5536,-13.1897 -5.0907,-3.7023 -17.5861,-3.7023 -10.8757,0 -16.892,3.0081 -6.0164,3.0082 -8.5617,10.8757 -2.314,7.8675 -2.314,22.6769 0,15.735 3.0082,24.2967 3.0081,8.5617 9.95,11.8012 6.942,3.0082 18.5118,3.0082 8.5617,0 19.6687,-0.6942 11.3385,-0.6942 21.7514,-1.8512 l 2.7767,17.8176 q -6.2477,2.5454 -14.3466,4.1651 -8.0989,1.6198 -16.892,2.314 -8.5617,0.9256 -16.1978,0.9256 -20.8257,0 -33.5525,-6.0163 -12.4955,-6.2477 -18.2804,-19.4374 -5.5535,-13.1896 -5.5535,-34.0153 0,-22.4455 5.5535,-35.4038 5.7849,-13.1896 18.049,-18.7431 12.4954,-5.5536 32.1642,-5.5536 z m 137.4406,0 q 5.7849,0 12.7268,0.4628 6.9419,0.4628 14.1152,1.8512 7.1734,1.3884 12.9583,3.9338 l -3.2396,17.5861 q -8.5617,-0.4628 -17.1234,-0.6942 -8.3303,-0.2313 -14.578,-0.2313 -11.8012,0 -18.7431,3.2395 -6.7105,3.0082 -9.7187,11.1071 -3.0082,7.8675 -3.0082,22.2141 0,14.3466 3.0082,22.4455 3.0082,7.8675 9.7187,11.107 6.9419,3.2396 18.7431,3.2396 3.471,0 9.0245,-0.2314 5.7849,-0.2314 12.2641,-0.6942 6.7105,-0.4628 12.9582,-1.157 l 2.7767,18.049 q -9.0244,3.7023 -20.1315,5.3221 -11.107,1.6198 -21.9827,1.6198 -20.3629,0 -32.627,-5.7849 -12.264,-5.7849 -17.8176,-18.7432 -5.3221,-13.1896 -5.3221,-35.1723 0,-21.9827 5.5535,-34.941 5.5536,-13.1896 17.8176,-18.7431 12.2641,-5.785 32.627,-5.785 z m 29.3874,-55.0724 8.0989,11.107 -34.4781,29.8502 h -12.0327 l -34.4781,-29.8502 8.0988,-11.107 31.47,19.4373 h 1.8512 z m 119.6231,55.0724 q 31.7014,0 31.7014,31.2386 v 85.1541 h -27.999 v -76.5924 q 0,-9.2558 -3.2396,-12.7268 -3.2395,-3.471 -10.8756,-3.471 -8.5617,0 -17.5862,3.9338 -9.0245,3.7023 -21.7513,10.8757 l -1.157,-16.892 q 12.4954,-10.4129 25.4536,-15.9664 12.9583,-5.5536 25.4537,-5.5536 z m -51.8329,2.7768 2.7768,22.2141 2.3139,3.2396 v 88.1622 h -27.999 v -113.6159 z m 175.1585,-2.7768 q 20.8257,0 33.0897,5.785 12.4955,5.7849 17.8176,18.9745 5.5535,13.1897 5.5535,34.941 0,21.7513 -5.5535,34.9409 -5.3221,12.9583 -17.8176,18.9746 -12.264,5.7849 -33.0897,5.7849 -20.363,0 -32.8584,-5.7849 -12.264,-6.0163 -17.8176,-18.9746 -5.5535,-13.1896 -5.5535,-34.9409 0,-21.7513 5.5535,-34.941 5.5536,-13.1896 17.8176,-18.9745 12.4954,-5.785 32.8584,-5.785 z m 0,21.2886 q -10.1815,0 -16.1978,3.4709 -5.7849,3.2396 -8.3303,11.5699 -2.5454,8.3303 -2.5454,23.3711 0,15.0408 2.5454,23.3711 2.5454,8.3303 8.3303,11.5698 6.0163,3.2396 16.1978,3.2396 10.4128,0 16.4292,-3.2396 6.0163,-3.2395 8.3303,-11.5698 2.5453,-8.3303 2.5453,-23.3711 0,-15.0408 -2.5453,-23.3711 -2.314,-8.3303 -8.3303,-11.5699 -6.0164,-3.4709 -16.4292,-3.4709 z m 133.2755,-21.2886 q 7.8675,0 16.892,0.4628 9.2559,0.4628 18.049,1.3884 8.7931,0.6942 15.735,2.0826 l -1.8512,18.2804 q -11.1071,-0.2314 -22.2141,-0.4628 -10.8757,-0.4628 -21.5199,-0.4628 -9.4873,0 -15.0408,0.4628 -5.3222,0.4628 -7.6361,2.7767 -2.0826,2.314 -2.0826,7.8675 0,6.7105 3.7023,9.0245 3.7024,2.0826 12.0327,4.1652 l 31.0072,7.1733 q 13.8838,3.4709 20.5943,10.6442 6.7105,6.9419 6.7105,21.5199 0,14.1153 -5.3221,21.52 -5.0907,7.1733 -16.4292,9.95 -11.1071,2.5454 -28.4618,2.5454 -6.7105,0 -19.9002,-0.6942 -13.1896,-0.4628 -28.9246,-3.0081 l 1.8512,-18.2804 q 4.6279,0 10.8756,0.2314 6.4792,0.2314 13.6525,0.2314 7.4047,0 15.0408,0 12.264,0 18.7431,-0.6942 6.7105,-0.9256 9.2559,-3.471 2.5454,-2.7767 2.5454,-7.8675 0,-6.4791 -4.3966,-8.5616 -4.1651,-2.314 -12.4954,-4.3966 l -30.313,-7.4047 q -10.4129,-2.7768 -16.1978,-6.9419 -5.7849,-4.3965 -8.3303,-10.6443 -2.5454,-6.4791 -2.5454,-15.735 0,-12.4954 4.628,-19.4373 4.8593,-6.9419 15.0408,-9.7187 10.4128,-2.7767 27.3048,-2.5454 z m 126.565,-29.6188 v 111.7648 q 0,7.1733 3.0081,10.1815 3.2396,3.0081 10.8757,3.0081 h 15.735 l 3.0081,19.6688 q -3.9337,1.1569 -9.4872,2.0825 -5.5536,0.9256 -10.8757,1.157 -5.3221,0.4628 -9.0245,0.4628 -14.8094,0 -23.1397,-7.8675 -8.0989,-8.0989 -8.0989,-23.1397 v -117.3183 z m 33.7839,32.3956 v 19.4374 h -81.9145 v -18.2804 l 22.2141,-1.157 z m 147.3814,-2.7768 q 13.6524,0 22.9083,3.7024 9.4873,3.471 14.3466,12.0326 4.8593,8.5617 4.8593,23.6025 v 77.0552 h -22.2141 l -3.9337,-24.528 -2.0826,-3.2396 v -49.519 q 0,-9.0244 -4.1651,-12.9582 -4.1652,-4.1651 -15.9664,-4.1651 -8.7931,0 -22.2141,0.6942 -13.1897,0.6941 -26.6107,1.8511 l -2.5454,-19.2059 q 8.0989,-1.6198 18.2804,-2.7768 10.1815,-1.157 20.5943,-1.8512 10.4129,-0.6942 18.7432,-0.6942 z m 30.0816,46.5108 -0.2314,17.3548 h -52.0643 q -6.9419,0.2314 -9.9501,3.7024 -3.0082,3.4709 -3.0082,9.4873 v 6.2477 q 0,6.9419 3.7024,10.6442 3.7023,3.471 11.5698,3.471 6.2478,0 13.8839,-2.5454 7.6361,-2.5453 15.0408,-7.4047 7.6361,-4.8593 13.6524,-11.5698 v 14.578 q -2.314,3.4709 -6.7105,8.3303 -4.3966,4.6279 -10.8757,9.2558 -6.2477,4.628 -14.578,7.6362 -8.0989,3.0081 -18.049,3.0081 -10.1814,0 -18.2803,-3.4709 -8.0989,-3.7024 -12.7269,-10.6443 -4.6279,-7.1733 -4.6279,-17.5862 v -12.0326 q 0,-13.421 8.7931,-20.8258 9.0245,-7.6361 24.5281,-7.6361 z"
           id="path3" /><path
           style="font-weight:600;font-family:'Exo 2';-inkscape-font-specification:'Exo 2 Semi-Bold';text-align:center;baseline-shift:baseline;text-anchor:middle"
           d="m 694.29332,2059.3708 q 15.0408,0 22.9083,8.0989 8.09889,7.8675 8.09889,23.1397 v 85.1541 h -27.76764 v -76.5924 q -0.23139,-8.5617 -3.47095,-12.264 -3.23956,-3.9338 -11.33845,-3.9338 -4.85934,0 -9.48728,1.6198 -4.39654,1.3884 -9.95007,4.6279 -5.55353,3.2396 -13.42103,8.5617 l -1.61978,-16.8919 q 11.80125,-10.8757 22.67691,-16.1978 11.10706,-5.3222 23.3711,-5.3222 z m -119.16946,2.7768 2.77676,22.2141 2.77677,3.2396 v 88.1622 h -27.99904 v -113.6159 z m 46.74219,-2.7768 q 14.80941,0 22.67691,7.8675 7.8675,7.8675 7.8675,23.3711 v 85.1541 h -26.84205 v -76.5924 q 0,-9.0245 -3.70236,-12.4954 -3.70235,-3.7024 -11.10705,-3.7024 -4.62794,0 -9.25588,1.3884 -4.62794,1.3884 -10.18147,4.6279 -5.55353,3.2396 -13.88382,8.7931 l -1.61978,-16.8919 q 11.56985,-10.8757 22.67691,-16.1978 11.10705,-5.3222 23.37109,-5.3222 z m 195.05846,0 q 20.82573,0 33.08977,5.785 12.49544,5.7849 17.81757,18.9745 5.55353,13.1896 5.55353,34.941 0,21.7513 -5.55353,34.9409 -5.32213,12.9582 -17.81757,18.9746 -12.26404,5.7849 -33.08977,5.7849 -20.36294,0 -32.85838,-5.7849 -12.26404,-6.0164 -17.81757,-18.9746 -5.55352,-13.1896 -5.55352,-34.9409 0,-21.7514 5.55352,-34.941 5.55353,-13.1896 17.81757,-18.9745 12.49544,-5.785 32.85838,-5.785 z m 0,21.2886 q -10.18147,0 -16.19779,3.4709 -5.78493,3.2396 -8.33029,11.5699 -2.54537,8.3303 -2.54537,23.3711 0,15.0408 2.54537,23.3711 2.54536,8.3302 8.33029,11.5698 6.01632,3.2396 16.19779,3.2396 10.41286,0 16.42918,-3.2396 6.01633,-3.2396 8.3303,-11.5698 2.54536,-8.3303 2.54536,-23.3711 0,-15.0408 -2.54536,-23.3711 -2.31397,-8.3303 -8.3303,-11.5699 -6.01632,-3.4709 -16.42918,-3.4709 z m 130.73013,-21.2886 q 11.56986,0 22.67691,3.2396 11.10706,3.0081 20.13154,10.1815 l -1.85118,14.1152 q -9.02448,-2.5454 -16.19779,-4.3966 -7.1733,-1.8511 -15.96639,-1.8511 -8.33029,0 -13.42103,3.0081 -4.85933,2.7768 -7.4047,10.8757 -2.31397,8.0989 -2.31397,23.6025 0,14.8094 2.31397,22.9083 2.31397,7.8675 7.17331,11.107 4.85933,3.0082 12.72683,3.0082 6.24772,0 11.10706,-1.3884 4.85934,-1.6198 9.95007,-4.6279 5.09073,-3.2396 11.80125,-8.0989 l 2.31397,15.735 q -7.8675,9.0245 -19.43735,15.5036 -11.33845,6.2477 -26.37926,6.2477 -21.75132,0 -31.0072,-15.2722 -9.25588,-15.5036 -9.25588,-44.891 0,-22.4455 4.62794,-35.1724 4.85934,-12.9582 14.34662,-18.2803 9.71867,-5.5536 24.06528,-5.5536 z m 65.71676,-45.5852 v 161.9779 h -21.98272 l -3.00816,-20.3629 -3.00816,-2.314 v -75.8982 l 1.38838,-3.2396 q -0.92559,-6.7105 -1.15699,-13.421 -0.23139,-6.9419 -0.23139,-14.1152 v -32.627 z m 91.8554,45.5852 q 27.5363,0 39.5689,9.7187 12.0327,9.4873 12.2641,28.2304 0.2313,15.5036 -7.4048,23.6025 -7.4047,7.8675 -24.7594,7.8675 h -64.7912 v -17.3547 h 57.1551 q 7.8675,0 9.95,-4.1652 2.314,-4.1651 2.314,-10.1815 -0.2314,-9.4872 -5.5535,-13.1896 -5.0908,-3.7023 -17.5862,-3.7023 -10.8757,0 -16.892,3.0081 -6.0163,3.0082 -8.5617,10.8757 -2.3139,7.8675 -2.3139,22.6769 0,15.735 3.0081,24.2967 3.0082,8.5617 9.9501,11.8012 6.9419,3.0082 18.5118,3.0082 8.5616,0 19.6687,-0.6942 11.3385,-0.6942 21.7513,-1.8512 l 2.7768,17.8176 q -6.2477,2.5453 -14.3466,4.1651 -8.0989,1.6198 -16.892,2.314 -8.5617,0.9256 -16.1978,0.9256 -20.8257,0 -33.5526,-6.0163 -12.4954,-6.2478 -18.2803,-19.4374 -5.5536,-13.1896 -5.5536,-34.0153 0,-22.4456 5.5536,-35.4038 5.7849,-13.1896 18.0489,-18.7431 12.4955,-5.5536 32.1642,-5.5536 z m 108.2847,2.7768 3.7023,22.2141 2.5454,3.2396 v 88.1622 h -27.9991 v -113.6159 z m 55.5352,-2.7768 -2.7767,25.9165 h -8.0989 q -9.0245,0 -18.2804,3.0082 -9.2559,3.0081 -23.1397,9.0244 l -1.8512,-16.4291 q 12.0327,-10.1815 24.5281,-15.735 12.4955,-5.785 24.0653,-5.785 z m 103.194,0 q 31.7014,0 31.7014,31.2386 v 85.1541 h -27.999 v -76.5924 q 0,-9.2559 -3.2396,-12.7268 -3.2395,-3.471 -10.8756,-3.471 -8.5617,0 -17.5862,3.9338 -9.0245,3.7023 -21.7513,10.8756 l -1.157,-16.8919 q 12.4954,-10.4129 25.4537,-15.9664 12.9582,-5.5536 25.4536,-5.5536 z m -51.8329,2.7768 2.7768,22.2141 2.314,3.2396 v 88.1622 h -27.9991 v -113.6159 z m 152.713,0 v 113.6159 h -27.999 v -113.6159 z m 11.3385,-60.3946 13.421,19.9001 -48.8248,26.6107 -8.5617,-12.2641 z m 112.4404,60.3946 3.7024,22.2141 2.5453,3.2396 v 88.1622 h -27.999 v -113.6159 z m 55.5353,-2.7768 -2.7768,25.9165 h -8.0989 q -9.0245,0 -18.2803,3.0082 -9.2559,3.0081 -23.1397,9.0244 l -1.8512,-16.4291 q 12.0326,-10.1815 24.5281,-15.735 12.4954,-5.785 24.0653,-5.785 z m -8.7931,-55.0725 8.0989,11.1071 -34.4782,29.8502 H 1605.23 l -34.4782,-29.8502 8.0989,-11.1071 31.47,19.4374 h 1.8512 z m 85.5155,55.0725 q 27.5362,0 39.5689,9.7187 12.0326,9.4873 12.264,28.2304 0.2314,15.5036 -7.4047,23.6025 -7.4047,7.8675 -24.7595,7.8675 h -64.7911 v -17.3547 h 57.155 q 7.8675,0 9.9501,-4.1652 2.314,-4.1651 2.314,-10.1815 -0.2314,-9.4872 -5.5535,-13.1896 -5.0908,-3.7023 -17.5862,-3.7023 -10.8757,0 -16.892,3.0081 -6.0163,3.0082 -8.5617,10.8757 -2.314,7.8675 -2.314,22.6769 0,15.735 3.0082,24.2967 3.0082,8.5617 9.9501,11.8012 6.9419,3.0082 18.5117,3.0082 8.5617,0 19.6688,-0.6942 11.3384,-0.6942 21.7513,-1.8512 l 2.7768,17.8176 q -6.2478,2.5453 -14.3467,4.1651 -8.0989,1.6198 -16.8919,2.314 -8.5617,0.9256 -16.1978,0.9256 -20.8258,0 -33.5526,-6.0163 -12.4954,-6.2478 -18.2804,-19.4374 -5.5535,-13.1896 -5.5535,-34.0153 0,-22.4456 5.5535,-35.4038 5.785,-13.1896 18.049,-18.7431 12.4954,-5.5536 32.1642,-5.5536 z m 127.4905,0 q 7.8675,0 16.892,0.4628 9.2559,0.4628 18.049,1.3884 8.7931,0.6942 15.735,2.0826 l -1.8512,18.2803 q -11.107,-0.2314 -22.2141,-0.4628 -10.8757,-0.4627 -21.5199,-0.4627 -9.4873,0 -15.0408,0.4627 -5.3222,0.4628 -7.6361,2.7768 -2.0826,2.314 -2.0826,7.8675 0,6.7105 3.7024,9.0245 3.7023,2.0826 12.0326,4.1651 l 31.0072,7.1733 q 13.8838,3.471 20.5943,10.6443 6.7105,6.9419 6.7105,21.5199 0,14.1152 -5.3221,21.52 -5.0907,7.1733 -16.4292,9.95 -11.107,2.5454 -28.4618,2.5454 -6.7105,0 -19.9001,-0.6942 -13.1897,-0.4628 -28.9247,-3.0082 l 1.8512,-18.2803 q 4.6279,0 10.8757,0.2314 6.4791,0.2314 13.6524,0.2314 7.4047,0 15.0408,0 12.264,0 18.7431,-0.6942 6.7106,-0.9256 9.2559,-3.471 2.5454,-2.7767 2.5454,-7.8675 0,-6.4791 -4.3965,-8.5617 -4.1652,-2.3139 -12.4955,-4.3965 l -30.313,-7.4047 q -10.4129,-2.7768 -16.1978,-6.9419 -5.7849,-4.3966 -8.3303,-10.6443 -2.5453,-6.4791 -2.5453,-15.735 0,-12.4954 4.6279,-19.4373 4.8593,-6.9419 15.0408,-9.7187 10.4129,-2.7768 27.3048,-2.5454 z m 37.0236,-54.6097 8.0989,11.1071 -34.4782,29.8502 h -12.0326 l -34.4782,-29.8502 8.0989,-11.1071 31.47,19.4374 h 1.8512 z m 102.7311,54.6097 q 27.5363,0 39.5689,9.7187 12.0327,9.4873 12.2641,28.2304 0.2314,15.5036 -7.4047,23.6025 -7.4047,7.8675 -24.7595,7.8675 h -64.7912 v -17.3547 h 57.1551 q 7.8675,0 9.95,-4.1652 2.314,-4.1651 2.314,-10.1815 -0.2314,-9.4872 -5.5535,-13.1896 -5.0907,-3.7023 -17.5862,-3.7023 -10.8756,0 -16.892,3.0081 -6.0163,3.0082 -8.5617,10.8757 -2.3139,7.8675 -2.3139,22.6769 0,15.735 3.0081,24.2967 3.0082,8.5617 9.9501,11.8012 6.9419,3.0082 18.5118,3.0082 8.5617,0 19.6687,-0.6942 11.3385,-0.6942 21.7513,-1.8512 l 2.7768,17.8176 q -6.2477,2.5453 -14.3466,4.1651 -8.0989,1.6198 -16.892,2.314 -8.5617,0.9256 -16.1978,0.9256 -20.8257,0 -33.5526,-6.0163 -12.4954,-6.2478 -18.2803,-19.4374 -5.5535,-13.1896 -5.5535,-34.0153 0,-22.4456 5.5535,-35.4038 5.7849,-13.1896 18.049,-18.7431 12.4954,-5.5536 32.1641,-5.5536 z m 161.2746,0 q 31.7013,0 31.7013,31.2386 v 85.1541 h -27.999 v -76.5924 q 0,-9.2559 -3.2396,-12.7268 -3.2395,-3.471 -10.8756,-3.471 -8.5617,0 -17.5862,3.9338 -9.0245,3.7023 -21.7513,10.8756 l -1.157,-16.8919 q 12.4954,-10.4129 25.4537,-15.9664 12.9582,-5.5536 25.4537,-5.5536 z m -51.833,2.7768 2.7768,22.2141 2.314,3.2396 v 88.1622 h -27.9991 v -113.6159 z m 152.713,0 v 113.6159 h -27.999 v -113.6159 z m 11.3385,-60.3946 13.421,19.9001 -48.8248,26.6107 -8.5617,-12.2641 z m 165.4304,57.6178 q 31.7014,0 31.7014,31.2386 v 85.1541 h -27.9991 v -76.5924 q 0,-9.2559 -3.2395,-12.7268 -3.2396,-3.471 -10.8757,-3.471 -8.5617,0 -17.5862,3.9338 -9.0244,3.7023 -21.7513,10.8756 l -1.157,-16.8919 q 12.4955,-10.4129 25.4537,-15.9664 12.9582,-5.5536 25.4537,-5.5536 z m -51.833,2.7768 2.7768,22.2141 2.314,3.2396 v 88.1622 h -27.9991 v -113.6159 z m 180.9435,-2.7768 q 13.6524,0 22.9083,3.7024 9.4872,3.4709 14.3466,12.0326 4.8593,8.5617 4.8593,23.6025 v 77.0552 h -22.2141 l -3.9337,-24.5281 -2.0826,-3.2395 v -49.519 q 0,-9.0245 -4.1652,-12.9582 -4.1651,-4.1652 -15.9664,-4.1652 -8.793,0 -22.2141,0.6942 -13.1896,0.6942 -26.6106,1.8512 l -2.5454,-19.2059 q 8.0989,-1.6198 18.2804,-2.7768 10.1814,-1.157 20.5943,-1.8512 10.4129,-0.6942 18.7432,-0.6942 z m 30.0816,46.5108 -0.2314,17.3548 h -52.0644 q -6.9419,0.2314 -9.95,3.7024 -3.0082,3.4709 -3.0082,9.4872 v 6.2478 q 0,6.9419 3.7024,10.6442 3.7023,3.471 11.5698,3.471 6.2477,0 13.8838,-2.5454 7.6361,-2.5454 15.0408,-7.4047 7.6361,-4.8593 13.6525,-11.5699 v 14.5781 q -2.314,3.4709 -6.7105,8.3302 -4.3966,4.628 -10.8757,9.2559 -6.2477,4.628 -14.578,7.6361 -8.0989,3.0082 -18.049,3.0082 -10.1815,0 -18.2803,-3.471 -8.0989,-3.7023 -12.7269,-10.6442 -4.6279,-7.1733 -4.6279,-17.5862 v -12.0326 q 0,-13.4211 8.7931,-20.8258 9.0244,-7.6361 24.528,-7.6361 z m 253.8242,-46.5108 q 15.0408,0 22.9083,8.0989 8.0989,7.8675 8.0989,23.1397 v 85.1541 h -27.7677 v -76.5924 q -0.2314,-8.5617 -3.4709,-12.264 -3.2396,-3.9338 -11.3385,-3.9338 -4.8593,0 -9.4872,1.6198 -4.3966,1.3884 -9.9501,4.6279 -5.5535,3.2396 -13.421,8.5617 l -1.6198,-16.8919 q 11.8012,-10.8757 22.6769,-16.1978 11.107,-5.3222 23.3711,-5.3222 z m -119.1695,2.7768 2.7768,22.2141 2.7768,3.2396 v 88.1622 h -27.9991 v -113.6159 z m 46.7422,-2.7768 q 14.8094,0 22.6769,7.8675 7.8675,7.8675 7.8675,23.3711 v 85.1541 h -26.842 v -76.5924 q 0,-9.0245 -3.7024,-12.4954 -3.7023,-3.7024 -11.107,-3.7024 -4.628,0 -9.2559,1.3884 -4.6279,1.3884 -10.1815,4.6279 -5.5535,3.2396 -13.8838,8.7931 l -1.6198,-16.8919 q 11.5699,-10.8757 22.6769,-16.1978 11.1071,-5.3222 23.3711,-5.3222 z m 172.6132,2.7768 v 113.6159 h -27.9991 v -113.6159 z m 11.3384,-60.3946 13.421,19.9001 -48.8247,26.6107 -8.5617,-12.2641 z m 52.2864,60.3946 3.7023,22.2141 2.5454,3.2396 v 88.1622 h -27.9991 v -113.6159 z m 55.5352,-2.7768 -2.7767,25.9165 h -8.0989 q -9.0245,0 -18.2804,3.0082 -9.2559,3.0081 -23.1397,9.0244 l -1.8512,-16.4291 q 12.0327,-10.1815 24.5281,-15.735 12.4955,-5.785 24.0653,-5.785 z m 55.7575,2.7768 v 76.8238 q -0.2314,8.5617 3.2396,12.264 3.7024,3.7024 11.8012,3.7024 8.0989,0 16.1978,-3.471 8.0989,-3.4709 19.6688,-10.4128 l 2.7767,16.6606 q -12.9582,10.4128 -24.9908,15.735 -12.0327,5.3221 -24.9909,5.3221 -31.7014,0 -31.7014,-31.2386 v -85.3855 z m 76.1297,0 v 113.6159 h -22.2142 l -3.0081,-21.9827 -2.7768,-3.2396 v -88.3936 z"
           id="path4" /></g></g></g></svg>
